<svg width="134" height="38" viewBox="0 0 134 38" fill="none" xmlns="http://www.w3.org/2000/svg">
<path d="M70.9872 18.0882C74.4603 18.6146 76.1004 20.6546 76.1004 23.7145C76.1004 27.1364 73.8171 30.3609 67.482 30.3609H49.8594V7H67.3534C73.0454 7 75.5215 9.56641 75.5215 12.9225C75.5215 15.2915 74.0744 17.4301 70.9872 18.0882ZM65.5847 11.3432H56.3553V16.4431H65.5847C68.2538 16.4431 68.8005 15.0611 68.8005 13.745C68.8005 12.5935 68.1573 11.3432 65.5847 11.3432ZM56.3553 26.0177H65.8741C68.3503 26.0177 69.3793 24.8003 69.3793 23.1881C69.3793 21.5759 68.3181 20.4572 65.8741 20.4572H56.3553V26.0177Z" fill="#004378"/>
<path d="M95.1055 30.3609H87.3233L76.0036 7H83.2071L90.3783 22.7275C90.7964 23.6487 90.9893 24.3397 91.1501 25.0636H91.2466C91.4074 24.3397 91.6325 23.6487 92.0184 22.7275L99.1896 7H106.393L95.1055 30.3609Z" fill="#004378"/>
<path d="M108.916 7H124.448C130.43 7 133.999 9.92833 133.999 14.765C133.999 19.7662 130.205 22.9578 124.32 22.9578H115.412V30.3609H108.916V7ZM115.412 18.5159H122.873C125.574 18.5159 127.15 17.1998 127.15 14.9295C127.15 12.6922 125.638 11.4419 122.905 11.4419H115.412V18.5159Z" fill="#004378"/>
<path d="M4.48572 34.7058C12.6995 43.176 25.1761 27.8437 25.1761 27.8437C25.1761 27.8437 16.484 32.5848 11.2369 29.2854C5.98984 25.9861 5.17193 19.318 5.17193 19.318C5.17193 19.318 -0.934673 29.1052 4.47878 34.7058" fill="#46B64A"/>
<path d="M9.44908 1.88537C2.68399 3.9648 1.39476 10.7576 0.97194 12.5321C0.72934 13.5441 2.01163 23.9897 2.02549 24.2531C2.04818 23.9107 2.09451 23.5703 2.16413 23.2342C2.58695 21.3489 5.1724 15.6096 11.7226 11.9013C21.8287 6.21059 28.3026 6.94532 28.3026 6.94532C28.3026 6.94532 22.9377 1.05359 14.7308 1.05359C12.9394 1.05597 11.1587 1.32939 9.44908 1.86457" fill="#46B64A"/>
<path d="M17.1829 0.138629C17.1829 0.138629 29.9368 1.06744 31.6488 10.9032C33.3263 20.5309 24.0243 30.4568 24.0243 30.4568C24.0243 30.4568 38.8922 18.5555 37.9564 10.2585C36.9375 1.16448 25.9234 0 20.3506 0C18.4305 0 17.1621 0.138629 17.1621 0.138629" fill="#46B64A"/>
<path d="M17.1829 0.138629C17.1829 0.138629 29.9368 1.06744 31.6488 10.9032C33.3263 20.5309 24.0243 30.4568 24.0243 30.4568C24.0243 30.4568 38.8922 18.5555 37.9564 10.2585C36.9375 1.16448 25.9234 0 20.3506 0C18.4305 0 17.1621 0.138629 17.1621 0.138629" fill="url(#paint0_linear_5489_3765)"/>
<defs>
<linearGradient id="paint0_linear_5489_3765" x1="27.5805" y1="0" x2="27.5805" y2="30.4568" gradientUnits="userSpaceOnUse">
<stop stop-color="#004378"/>
<stop offset="1" stop-color="#004378" stop-opacity="0"/>
</linearGradient>
</defs>
</svg>
