<svg width="1600" height="560" viewBox="0 0 1600 560" fill="none" xmlns="http://www.w3.org/2000/svg">
<mask id="mask0_38_1026" style="mask-type:alpha" maskUnits="userSpaceOnUse" x="0" y="0" width="1600" height="560">
<rect width="1600" height="560" fill="#D9D9D9"/>
</mask>
<g mask="url(#mask0_38_1026)">
<rect x="-40" width="140" height="140" fill="#04724D"/>
<path d="M660 -6.11959e-06C737.32 -2.73984e-06 800 62.6801 800 140L660 140L660 -6.11959e-06Z" fill="#04724D"/>
<path d="M1500 140C1500 62.6801 1562.68 0 1640 0V140H1500Z" fill="#7AE582"/>
<path d="M240 2.38419e-06C240 77.3199 177.32 140 100 140V2.38419e-06H240Z" fill="#7AE582"/>
<path d="M800 280C722.68 280 660 217.32 660 140L800 140L800 280Z" fill="#7AE582"/>
<path d="M940 280C940 202.68 1002.68 140 1080 140L1080 280L940 280Z" fill="#04724D"/>
<path d="M380 280C302.68 280 240 217.32 240 140L380 140L380 280Z" fill="#7AE582"/>
<path d="M1080 140C1002.68 140 940 77.3199 940 2.38419e-06L1080 -3.73541e-06L1080 140Z" fill="#9ED0E6"/>
<circle cx="30" cy="210" r="70" fill="#F39C6B"/>
<circle cx="590" cy="70" r="70" fill="#F39C6B"/>
<circle cx="870" cy="70" r="70" fill="#7AE582"/>
<rect x="1500" y="140" width="140" height="140" fill="#04724D"/>
<path d="M800 210C800 171.34 831.34 140 870 140V140C908.66 140 940 171.34 940 210V280H870C831.34 280 800 248.66 800 210V210Z" fill="#004378"/>
<rect x="520" width="140" height="280" rx="70" transform="rotate(90 520 0)" fill="#9ED0E6"/>
<rect x="1360" y="420" width="140" height="140" fill="#7AE582"/>
<path d="M1080 490C1080 528.66 1048.66 560 1010 560V560C971.34 560 940 528.66 940 490V420H1010C1048.66 420 1080 451.34 1080 490V490Z" fill="#F39C6B"/>
<circle cx="1570" cy="350" r="70" fill="#F39C6B"/>
<path d="M380 420C302.68 420 240 482.68 240 560H520V420H380Z" fill="#004378"/>
<rect x="100" y="420" width="140" height="140" fill="#F39C6B"/>
<path d="M1150 280C1111.34 280 1080 311.34 1080 350V560H1220V350C1220 311.34 1188.66 280 1150 280Z" fill="#9ED0E6"/>
<path d="M1500 420C1500 342.68 1437.32 280 1360 280C1282.68 280 1220 342.68 1220 420L1500 420Z" fill="#004378"/>
<path d="M660 420C660 342.68 722.68 280 800 280H940V420C940 497.32 877.32 560 800 560H660V420Z" fill="#04724D"/>
<path d="M1080 420C1002.68 420 940 357.32 940 280L1080 280L1080 420Z" fill="#7AE582"/>
<path d="M-40 420C-40 342.68 22.6801 280 100 280L100 420H-40Z" fill="#7AE582"/>
<path d="M1500 560C1500 482.68 1562.68 420 1640 420V560H1500Z" fill="#9ED0E6"/>
<circle cx="310" cy="350" r="70" fill="#9ED0E6"/>
<circle cx="1290" cy="490" r="70" fill="#04724D"/>
<circle cx="30" cy="490" r="70" fill="#04724D"/>
<circle cx="590" cy="490" r="70" fill="#7AE582"/>
<path d="M240 140C162.68 140 100 202.68 100 280C100 357.32 162.68 420 240 420V140Z" fill="#004378"/>
</g>
</svg>
